<?xml version="1.0" encoding="UTF-8" standalone="no"?>
<!-- Created with Inkscape (http://www.inkscape.org/) -->

<svg
   xmlns:dc="http://purl.org/dc/elements/1.1/"
   xmlns:cc="http://creativecommons.org/ns#"
   xmlns:rdf="http://www.w3.org/1999/02/22-rdf-syntax-ns#"
   xmlns:svg="http://www.w3.org/2000/svg"
   xmlns="http://www.w3.org/2000/svg"
   xmlns:sodipodi="http://sodipodi.sourceforge.net/DTD/sodipodi-0.dtd"
   xmlns:inkscape="http://www.inkscape.org/namespaces/inkscape"
   width="594mm"
   height="420mm"
   viewBox="0 0 594 420"
   version="1.1"
   id="svg8"
   inkscape:version="0.92.3 (2405546, 2018-03-11)"
   sodipodi:docname="corte_caja.svg">
  <defs
     id="defs2" />
  <sodipodi:namedview
     id="base"
     pagecolor="#ffffff"
     bordercolor="#666666"
     borderopacity="1.0"
     inkscape:pageopacity="0.0"
     inkscape:pageshadow="2"
     inkscape:zoom="0.43880761"
     inkscape:cx="1132.8847"
     inkscape:cy="875.10808"
     inkscape:document-units="mm"
     inkscape:current-layer="layer1"
     showgrid="false"
     inkscape:window-width="1440"
     inkscape:window-height="837"
     inkscape:window-x="-8"
     inkscape:window-y="174"
     inkscape:window-maximized="1" />
  <metadata
     id="metadata5">
    <rdf:RDF>
      <cc:Work
         rdf:about="">
        <dc:format>image/svg+xml</dc:format>
        <dc:type
           rdf:resource="http://purl.org/dc/dcmitype/StillImage" />
        <dc:title></dc:title>
      </cc:Work>
    </rdf:RDF>
  </metadata>
  <g
     inkscape:label="Layer 1"
     inkscape:groupmode="layer"
     id="layer1"
     transform="translate(0,123)">
    <path
       d="m 83.648944,-63.894952 h 10.827279 v -2.24999 h 15.000027 v 2.24999 h 42.82551 v -2.24999 h 14.99999 v 2.24999 h 42.82562 v -2.24999 h 15 v 2.24999 h 42.82551 v -2.24999 h 14.99999 v 2.24999 h 12.19605 v 22.687492 h -2.24999 v 14.999996 h 2.24999 v 22.6875178 h -12.19605 v 2.2499902 h -14.99999 v -2.2499902 h -42.82551 v 2.2499902 h -15 V -3.5199462 H 167.30175 V -1.269956 H 152.30176 V -3.5199462 H 109.47625 V -1.269956 H 94.476223 V -3.5199462 H 83.648944 V -26.207464 h 2.24999 V -41.20746 h -2.24999 z"
       style="fill:none;stroke:#1b1918;stroke-width:0.14999229;stroke-linecap:butt;stroke-linejoin:miter;stroke-dasharray:none"
       id="path10"
       inkscape:connector-curvature="0" />
    <path
       d="m 328.27396,173.04265 c -0.0951,0.081 -0.18674,0.13769 -0.27459,0.17121 -0.0877,0.0335 -0.18187,0.0499 -0.28273,0.0499 -0.16592,0 -0.29347,-0.0403 -0.38275,-0.12126 -0.0892,-0.0806 -0.13385,-0.18383 -0.13385,-0.30945 0,-0.0737 0.0169,-0.14116 0.0505,-0.20228 0.0339,-0.0611 0.0781,-0.10964 0.13237,-0.14647 0.0548,-0.0369 0.11597,-0.065 0.18436,-0.0839 0.0504,-0.0131 0.1266,-0.0257 0.22799,-0.0383 0.20664,-0.0243 0.35941,-0.0538 0.45691,-0.0878 0.001,-0.035 0.001,-0.0572 0.001,-0.0665 0,-0.1038 -0.0242,-0.17706 -0.0728,-0.21974 -0.0655,-0.0577 -0.16295,-0.0863 -0.29196,-0.0863 -0.12084,0 -0.21008,0.0214 -0.26731,0.0635 -0.0577,0.0422 -0.0999,0.11692 -0.12756,0.22464 l -0.25029,-0.035 c 0.0228,-0.10718 0.0602,-0.19401 0.11258,-0.25995 0.0524,-0.066 0.12803,-0.11647 0.22696,-0.15232 0.0985,-0.0354 0.21344,-0.0534 0.34343,-0.0534 0.12906,0 0.23428,0.0151 0.3153,0.0456 0.0805,0.0306 0.14015,0.0684 0.17804,0.11453 0.0378,0.046 0.0645,0.10425 0.08,0.1746 0.008,0.0436 0.0126,0.12224 0.0126,0.23527 v 0.33951 c 0,0.23723 0.005,0.38709 0.016,0.45062 0.0102,0.0635 0.0316,0.12419 0.0626,0.1824 h -0.26773 c -0.0257,-0.0538 -0.0422,-0.11692 -0.0495,-0.18915 z m -0.0204,-0.56753 c -0.0931,0.0378 -0.23281,0.0698 -0.4191,0.096 -0.10567,0.0151 -0.18037,0.032 -0.2241,0.0509 -0.0437,0.019 -0.0771,0.0466 -0.10089,0.0825 -0.0238,0.0364 -0.0359,0.0767 -0.0359,0.12128 0,0.0674 0.0257,0.12412 0.0776,0.16928 0.0519,0.0451 0.12758,0.0679 0.22704,0.0679 0.0985,0 0.18629,-0.0213 0.26339,-0.0645 0.0766,-0.0427 0.13343,-0.10139 0.16928,-0.17557 0.0277,-0.0577 0.0413,-0.14264 0.0413,-0.25469 z m 1.62743,0.75668 v -0.19164 c -0.0956,0.14896 -0.23625,0.22365 -0.42204,0.22365 -0.12028,0 -0.23085,-0.033 -0.33126,-0.0994 -0.10089,-0.066 -0.17904,-0.15864 -0.23476,-0.27699 -0.0554,-0.1188 -0.0829,-0.25514 -0.0829,-0.40934 0,-0.15039 0.0252,-0.28673 0.0751,-0.40944 0.0505,-0.12224 0.12562,-0.21638 0.22606,-0.2813 0.0999,-0.0655 0.21249,-0.098 0.33615,-0.098 0.0912,0 0.17219,0.0194 0.243,0.0577 0.0708,0.0383 0.12856,0.0888 0.17317,0.15039 v -0.74941 h 0.25614 v 2.08381 z m -0.8091,-0.7533 c 0,0.19304 0.0407,0.33711 0.12269,0.43268 0.0815,0.0955 0.17806,0.14308 0.28913,0.14308 0.11205,0 0.20715,-0.0456 0.28567,-0.13679 0.0782,-0.0912 0.11737,-0.2304 0.11737,-0.41759 0,-0.20574 -0.0397,-0.35708 -0.11977,-0.4536 -0.0796,-0.0966 -0.17804,-0.14454 -0.29491,-0.14454 -0.11398,0 -0.2091,0.0461 -0.28575,0.13875 -0.0761,0.0926 -0.11443,0.23865 -0.11443,0.43801 z m 2.48301,0.26438 0.26482,0.0349 c -0.0412,0.15383 -0.11835,0.2736 -0.23085,0.35851 -0.11255,0.0849 -0.25612,0.12755 -0.43124,0.12755 -0.22019,0 -0.39479,-0.0679 -0.52388,-0.2037 -0.12898,-0.13536 -0.19349,-0.32602 -0.19349,-0.57097 0,-0.25321 0.065,-0.45014 0.19545,-0.58978 0.13049,-0.14018 0.29977,-0.21008 0.50789,-0.21008 0.2013,0 0.36571,0.0684 0.49329,0.20571 0.12756,0.13727 0.19161,0.33031 0.19161,0.57915 0,0.015 -5.2e-4,0.0378 -0.002,0.0679 h -1.12485 c 0.01,0.16544 0.0563,0.2925 0.1407,0.38031 0.0839,0.0878 0.18915,0.13192 0.31478,0.13192 0.0936,0 0.1737,-0.0247 0.23963,-0.0742 0.0664,-0.0494 0.11888,-0.12856 0.15764,-0.23714 z m -0.8382,-0.4104 h 0.84114 c -0.0112,-0.12705 -0.0437,-0.22217 -0.0965,-0.2857 -0.081,-0.0985 -0.18677,-0.14795 -0.31629,-0.14795 -0.11737,0 -0.21584,0.0393 -0.29588,0.1179 -0.0796,0.0786 -0.12367,0.1838 -0.13245,0.31575 z m 1.42081,0.89932 v -2.08381 h 0.25604 v 2.08381 z m 1.63896,-0.18915 c -0.0951,0.081 -0.18674,0.13769 -0.27456,0.17121 -0.0878,0.0335 -0.18187,0.0499 -0.28276,0.0499 -0.16589,0 -0.29347,-0.0403 -0.38272,-0.12126 -0.0892,-0.0806 -0.13387,-0.18383 -0.13387,-0.30945 0,-0.0737 0.017,-0.14116 0.0505,-0.20228 0.0339,-0.0611 0.0781,-0.10964 0.13237,-0.14647 0.0548,-0.0369 0.11594,-0.065 0.18433,-0.0839 0.0504,-0.0131 0.12661,-0.0257 0.22802,-0.0383 0.20662,-0.0243 0.35939,-0.0538 0.45688,-0.0878 10e-4,-0.035 10e-4,-0.0572 10e-4,-0.0665 0,-0.1038 -0.0242,-0.17706 -0.0727,-0.21974 -0.0655,-0.0577 -0.16298,-0.0863 -0.29199,-0.0863 -0.12081,0 -0.21005,0.0214 -0.26728,0.0635 -0.0577,0.0422 -0.0999,0.11692 -0.12758,0.22464 l -0.25027,-0.035 c 0.0228,-0.10718 0.0601,-0.19401 0.11258,-0.25995 0.0523,-0.066 0.128,-0.11647 0.22693,-0.15232 0.0985,-0.0354 0.21346,-0.0534 0.34343,-0.0534 0.12909,0 0.23431,0.0151 0.3153,0.0456 0.0805,0.0306 0.14018,0.0684 0.17804,0.11453 0.0378,0.046 0.0645,0.10425 0.08,0.1746 0.008,0.0436 0.0126,0.12224 0.0126,0.23527 v 0.33951 c 0,0.23723 0.005,0.38709 0.016,0.45062 0.0102,0.0635 0.0316,0.12419 0.0626,0.1824 h -0.26776 c -0.0257,-0.0538 -0.0422,-0.11692 -0.0495,-0.18915 z m -0.0204,-0.56753 c -0.0931,0.0378 -0.23278,0.0698 -0.4191,0.096 -0.10567,0.0151 -0.18036,0.032 -0.2241,0.0509 -0.0436,0.019 -0.0771,0.0466 -0.10086,0.0825 -0.0238,0.0364 -0.0358,0.0767 -0.0358,0.12128 0,0.0674 0.0256,0.12412 0.0776,0.16928 0.0519,0.0451 0.12758,0.0679 0.22701,0.0679 0.0985,0 0.18632,-0.0213 0.26342,-0.0645 0.0766,-0.0427 0.1334,-0.10139 0.16926,-0.17557 0.0277,-0.0577 0.0412,-0.14264 0.0412,-0.25469 z m 0.65244,0.75668 v -1.51051 h 0.22995 v 0.21442 c 0.11054,-0.16446 0.27067,-0.24643 0.47969,-0.24643 0.0912,0 0.1746,0.0165 0.2508,0.049 0.0761,0.0325 0.13335,0.0756 0.17124,0.12846 0.0378,0.0529 0.0645,0.11596 0.0795,0.1887 0.009,0.0475 0.0141,0.13052 0.0141,0.24886 v 0.92745 h -0.25614 v -0.91779 c 0,-0.10424 -0.01,-0.18232 -0.0296,-0.23376 -0.0199,-0.0514 -0.0553,-0.0926 -0.10576,-0.12369 -0.0505,-0.0306 -0.11009,-0.046 -0.17803,-0.046 -0.10867,0 -0.20228,0.0344 -0.28134,0.1038 -0.079,0.0688 -0.11834,0.20031 -0.11834,0.39338 v 0.8241 z m 2.17456,-0.22844 0.0349,0.22603 c -0.0719,0.015 -0.13637,0.0228 -0.19262,0.0228 -0.0926,0 -0.16446,-0.0145 -0.21585,-0.0442 -0.0509,-0.0296 -0.0868,-0.0679 -0.10768,-0.11594 -0.0208,-0.048 -0.0311,-0.14888 -0.0311,-0.30263 v -0.87021 h -0.18915 v -0.19794 h 0.18915 v -0.37348 l 0.25611,-0.15375 v 0.52723 h 0.25615 v 0.19794 h -0.25615 v 0.88476 c 0,0.0732 0.004,0.12031 0.0136,0.14116 0.009,0.0208 0.0233,0.0373 0.0436,0.0499 0.0204,0.0121 0.0495,0.0184 0.0873,0.0184 0.0281,0 0.0654,-0.003 0.1116,-0.0102 z m 1.28293,-0.26048 0.26483,0.0349 c -0.0412,0.15383 -0.11835,0.2736 -0.23085,0.35851 -0.11258,0.0849 -0.25612,0.12755 -0.43125,0.12755 -0.22021,0 -0.39481,-0.0679 -0.52387,-0.2037 -0.12901,-0.13536 -0.19349,-0.32602 -0.19349,-0.57097 0,-0.25321 0.0649,-0.45014 0.19545,-0.58978 0.13049,-0.14018 0.29977,-0.21008 0.50789,-0.21008 0.2013,0 0.36571,0.0684 0.49326,0.20571 0.12758,0.13727 0.19164,0.33031 0.19164,0.57915 0,0.015 -5.3e-4,0.0378 -0.002,0.0679 h -1.12485 c 0.01,0.16544 0.0562,0.2925 0.14071,0.38031 0.0839,0.0878 0.18915,0.13192 0.31477,0.13192 0.0936,0 0.1737,-0.0247 0.23964,-0.0742 0.0664,-0.0494 0.11887,-0.12856 0.15764,-0.23714 z m -0.8382,-0.4104 h 0.84114 c -0.0112,-0.12705 -0.0437,-0.22217 -0.0965,-0.2857 -0.081,-0.0985 -0.18675,-0.14795 -0.31626,-0.14795 -0.11737,0 -0.21585,0.0393 -0.29588,0.1179 -0.0796,0.0786 -0.12367,0.1838 -0.13246,0.31575 z"
       style="fill:#1b1918;fill-rule:evenodd;stroke-width:0.26458332"
       id="path12"
       inkscape:connector-curvature="0" />
    <path
       d="m 113.28225,173.09551 v -0.29099 h 0.25614 v 0.29099 z m 0,1.79282 v -1.51051 h 0.25614 v 1.51051 z m 0.51128,0 v -0.20857 l 0.95655,-1.104 c -0.10867,0.006 -0.20423,0.009 -0.28673,0.009 h -0.61161 v -0.20662 h 1.23105 v 0.1683 l -0.81878,0.95753 -0.15668,0.17804 c 0.11498,-0.01 0.22267,-0.0146 0.32311,-0.0146 h 0.69892 v 0.22119 z m 2.55241,0.57915 v -0.74116 c -0.0398,0.0558 -0.0956,0.10184 -0.16687,0.13875 -0.0712,0.0368 -0.14745,0.0553 -0.22794,0.0553 -0.17902,0 -0.33277,-0.0713 -0.46231,-0.21442 -0.12898,-0.14258 -0.19349,-0.33856 -0.19349,-0.58687 0,-0.15137 0.0262,-0.28718 0.0785,-0.40748 0.0529,-0.11986 0.12906,-0.21106 0.22897,-0.27263 0.0999,-0.0621 0.20955,-0.0931 0.32888,-0.0931 0.18674,0 0.33321,0.0781 0.4404,0.23482 v -0.20281 h 0.22995 v 2.08966 z m -0.7887,-1.33877 c 0,0.19405 0.0407,0.33954 0.12224,0.43659 0.0815,0.097 0.17897,0.14549 0.29295,0.14549 0.10914,0 0.2028,-0.0461 0.28186,-0.13822 0.0786,-0.0927 0.11782,-0.23288 0.11782,-0.42105 0,-0.20085 -0.0417,-0.35169 -0.12465,-0.45308 -0.0829,-0.10133 -0.17991,-0.15179 -0.29197,-0.15179 -0.11107,0 -0.20521,0.047 -0.28231,0.14113 -0.0772,0.0941 -0.11594,0.24106 -0.11594,0.44093 z m 2.43211,0.75962 v -0.22455 c -0.1174,0.17121 -0.27647,0.25656 -0.47776,0.25656 -0.0888,0 -0.17174,-0.017 -0.24887,-0.0509 -0.0772,-0.0344 -0.13438,-0.0772 -0.17174,-0.12853 -0.0373,-0.0519 -0.0635,-0.11499 -0.0786,-0.18968 -0.0101,-0.0505 -0.0154,-0.12999 -0.0154,-0.23866 v -0.93472 h 0.25603 v 0.83579 c 0,0.13335 0.005,0.22358 0.0155,0.26972 0.016,0.0674 0.05,0.11978 0.10236,0.15809 0.0519,0.0383 0.11594,0.0578 0.19259,0.0578 0.0766,0 0.14843,-0.0194 0.21535,-0.0587 0.067,-0.0393 0.11443,-0.0931 0.14263,-0.16058 0.0276,-0.0674 0.0417,-0.16589 0.0417,-0.29437 v -0.80767 h 0.25615 v 1.51051 z m 0.63201,-1.79282 v -0.29099 h 0.25611 v 0.29099 z m 0,1.79282 v -1.51051 h 0.25611 v 1.51051 z m 1.67685,-0.48892 0.26482,0.0349 c -0.0412,0.15383 -0.11835,0.2736 -0.23085,0.35848 -0.11258,0.0849 -0.25612,0.12758 -0.43125,0.12758 -0.22021,0 -0.39481,-0.0679 -0.52387,-0.2037 -0.12901,-0.13536 -0.19349,-0.32602 -0.19349,-0.57097 0,-0.25321 0.0649,-0.45016 0.19545,-0.58981 0.13049,-0.14018 0.29977,-0.21005 0.50789,-0.21005 0.2013,0 0.36571,0.0684 0.49326,0.20571 0.12759,0.13724 0.19164,0.33031 0.19164,0.57915 0,0.015 -5.3e-4,0.0378 -0.002,0.0679 h -1.12484 c 0.01,0.16547 0.0563,0.29253 0.1407,0.38034 0.0839,0.0877 0.18915,0.13192 0.31478,0.13192 0.0936,0 0.17369,-0.0247 0.23963,-0.0742 0.0664,-0.0494 0.11888,-0.12856 0.15764,-0.23714 z m -0.8382,-0.41043 h 0.84113 c -0.0112,-0.12702 -0.0436,-0.22214 -0.0965,-0.28567 -0.081,-0.0985 -0.18675,-0.14795 -0.31626,-0.14795 -0.11737,0 -0.21585,0.0393 -0.29588,0.1179 -0.0796,0.0786 -0.12367,0.1838 -0.13245,0.31572 z m 1.42364,0.89935 v -1.51051 h 0.22995 v 0.23138 c 0.0587,-0.10718 0.11303,-0.17798 0.16298,-0.21196 0.05,-0.0344 0.10478,-0.0514 0.16441,-0.0514 0.0864,0 0.17415,0.0272 0.2634,0.081 l -0.0912,0.23624 c -0.062,-0.035 -0.12412,-0.0524 -0.18622,-0.0524 -0.0558,0 -0.10575,0.017 -0.14994,0.0504 -0.0441,0.0335 -0.0756,0.08 -0.0946,0.13972 -0.0286,0.0907 -0.0427,0.19013 -0.0427,0.29829 v 0.78923 z m 1.9471,0 v -0.19164 c -0.0956,0.14896 -0.23628,0.22365 -0.42204,0.22365 -0.12031,0 -0.23085,-0.033 -0.33129,-0.0995 -0.10086,-0.066 -0.17901,-0.15862 -0.23473,-0.27697 -0.0554,-0.1188 -0.083,-0.25514 -0.083,-0.40936 0,-0.15037 0.0252,-0.28671 0.0751,-0.40942 0.0505,-0.12224 0.12562,-0.21638 0.22606,-0.28133 0.0999,-0.0655 0.21246,-0.098 0.33615,-0.098 0.0912,0 0.17219,0.0194 0.243,0.0577 0.0708,0.0383 0.12856,0.0888 0.17317,0.15039 v -0.74941 h 0.25611 v 2.08381 z m -0.80913,-0.75332 c 0,0.19306 0.0408,0.33713 0.12272,0.4327 0.0815,0.0955 0.17803,0.14308 0.28911,0.14308 0.11205,0 0.20717,-0.0456 0.28569,-0.13679 0.0781,-0.0912 0.11737,-0.2304 0.11737,-0.41761 0,-0.20572 -0.0398,-0.35706 -0.11977,-0.45361 -0.0796,-0.0965 -0.17807,-0.14451 -0.29491,-0.14451 -0.11401,0 -0.2091,0.0461 -0.28575,0.13875 -0.0761,0.0926 -0.11446,0.23865 -0.11446,0.43799 z m 2.43938,0.56417 c -0.0951,0.081 -0.18674,0.13769 -0.27456,0.17121 -0.0878,0.0334 -0.18187,0.05 -0.28276,0.05 -0.16589,0 -0.29347,-0.0403 -0.38272,-0.12128 -0.0892,-0.0805 -0.13388,-0.18381 -0.13388,-0.30943 0,-0.0737 0.017,-0.14116 0.0505,-0.20228 0.0339,-0.0611 0.0781,-0.10967 0.13237,-0.14647 0.0548,-0.0369 0.11594,-0.065 0.18433,-0.0839 0.0504,-0.0131 0.12661,-0.0257 0.22802,-0.0383 0.20661,-0.0243 0.35938,-0.0539 0.45688,-0.0878 0.001,-0.035 0.001,-0.0572 0.001,-0.0665 0,-0.1038 -0.0242,-0.17706 -0.0727,-0.21974 -0.0655,-0.0577 -0.16298,-0.0863 -0.29199,-0.0863 -0.12081,0 -0.21005,0.0214 -0.26728,0.0635 -0.0577,0.0422 -0.0999,0.11692 -0.12759,0.22464 l -0.25026,-0.035 c 0.0228,-0.10718 0.0601,-0.19401 0.11258,-0.25995 0.0523,-0.066 0.128,-0.11647 0.22693,-0.15232 0.0985,-0.0354 0.21346,-0.0534 0.34343,-0.0534 0.12906,0 0.23429,0.0151 0.3153,0.0456 0.0805,0.0306 0.14018,0.0684 0.17804,0.11451 0.0378,0.0461 0.0645,0.10427 0.08,0.17462 0.008,0.0436 0.0126,0.12224 0.0126,0.23527 v 0.33951 c 0,0.23723 0.005,0.38709 0.016,0.45061 0.0102,0.0635 0.0316,0.1242 0.0626,0.18241 h -0.26776 c -0.0257,-0.0539 -0.0422,-0.11695 -0.0495,-0.18915 z m -0.0204,-0.56753 c -0.0931,0.0378 -0.23278,0.0698 -0.4191,0.096 -0.10567,0.0151 -0.18036,0.032 -0.2241,0.0509 -0.0436,0.019 -0.0771,0.0466 -0.10086,0.0825 -0.0238,0.0364 -0.0358,0.0767 -0.0358,0.12128 0,0.0674 0.0256,0.12412 0.0776,0.16928 0.0519,0.0451 0.12758,0.0679 0.22701,0.0679 0.0985,0 0.18632,-0.0213 0.26342,-0.0645 0.0767,-0.0427 0.1334,-0.10139 0.16926,-0.17557 0.0277,-0.0577 0.0412,-0.14264 0.0412,-0.25469 z"
       style="fill:#1b1918;fill-rule:evenodd;stroke-width:0.26458332"
       id="path14"
       inkscape:connector-curvature="0" />
    <path
       d="m 189.46042,174.40959 v -0.19161 c -0.0955,0.14893 -0.23625,0.22365 -0.42201,0.22365 -0.12031,0 -0.23085,-0.033 -0.33128,-0.0994 -0.10086,-0.066 -0.17902,-0.15862 -0.23474,-0.277 -0.0554,-0.11879 -0.0829,-0.25513 -0.0829,-0.40933 0,-0.15039 0.0252,-0.28673 0.0751,-0.40942 0.0505,-0.12226 0.12563,-0.21638 0.22606,-0.28133 0.0999,-0.0655 0.21246,-0.098 0.33616,-0.098 0.0912,0 0.17219,0.0194 0.24299,0.0578 0.0708,0.0383 0.12853,0.0888 0.17317,0.15036 v -0.7494 h 0.25612 v 2.0838 z m -0.80909,-0.75329 c 0,0.19304 0.0407,0.33713 0.12271,0.43267 0.0815,0.0955 0.17804,0.14311 0.28911,0.14311 0.11205,0 0.20717,-0.0456 0.2857,-0.13681 0.0781,-0.0912 0.11737,-0.2304 0.11737,-0.4176 0,-0.20574 -0.0398,-0.35708 -0.11978,-0.4536 -0.0796,-0.0965 -0.17807,-0.14451 -0.29491,-0.14451 -0.114,0 -0.2091,0.0461 -0.28575,0.13875 -0.0761,0.0926 -0.11445,0.23862 -0.11445,0.43799 z m 2.48303,0.26437 0.26482,0.0349 c -0.0412,0.15383 -0.11835,0.27361 -0.23085,0.35851 -0.11258,0.0849 -0.25611,0.12758 -0.43124,0.12758 -0.22021,0 -0.39481,-0.068 -0.52388,-0.2037 -0.12901,-0.13539 -0.19351,-0.32605 -0.19351,-0.571 0,-0.25318 0.065,-0.45013 0.19547,-0.58978 0.13049,-0.14018 0.29977,-0.21008 0.5079,-0.21008 0.20129,0 0.36568,0.0684 0.49326,0.20571 0.12758,0.13727 0.19164,0.33031 0.19164,0.57918 0,0.015 -5.3e-4,0.0378 -0.002,0.0679 h -1.12485 c 0.01,0.16545 0.0563,0.2925 0.1407,0.38031 0.0839,0.0878 0.18916,0.13195 0.31478,0.13195 0.0936,0 0.1737,-0.0248 0.23961,-0.0743 0.0665,-0.0494 0.11887,-0.12853 0.15766,-0.23714 z m -0.8382,-0.4104 h 0.84111 c -0.0112,-0.12705 -0.0436,-0.22214 -0.0965,-0.28567 -0.081,-0.0985 -0.18674,-0.14798 -0.31626,-0.14798 -0.11739,0 -0.21587,0.0393 -0.29588,0.1179 -0.0796,0.0786 -0.12367,0.18383 -0.13245,0.31575 z m 1.42364,0.89932 v -1.5105 h 0.22995 v 0.23137 c 0.0587,-0.10715 0.11303,-0.17796 0.16299,-0.21193 0.0499,-0.0344 0.10477,-0.0515 0.16438,-0.0515 0.0864,0 0.17415,0.0272 0.26342,0.081 l -0.0912,0.23627 c -0.062,-0.0349 -0.12414,-0.0524 -0.18624,-0.0524 -0.0558,0 -0.10575,0.017 -0.14991,0.0504 -0.0441,0.0335 -0.0756,0.08 -0.0946,0.13973 -0.0286,0.0907 -0.0427,0.19013 -0.0427,0.29827 v 0.78922 z m 2.00237,-0.48892 0.26482,0.0349 c -0.0412,0.15383 -0.11835,0.27361 -0.23085,0.35851 -0.11258,0.0849 -0.25614,0.12758 -0.43127,0.12758 -0.22018,0 -0.39478,-0.068 -0.52387,-0.2037 -0.12899,-0.13539 -0.19349,-0.32605 -0.19349,-0.571 0,-0.25318 0.065,-0.45013 0.19545,-0.58978 0.13049,-0.14018 0.29977,-0.21008 0.50789,-0.21008 0.20132,0 0.36571,0.0684 0.49329,0.20571 0.12758,0.13727 0.19161,0.33031 0.19161,0.57918 0,0.015 -5.3e-4,0.0378 -0.002,0.0679 h -1.12485 c 0.01,0.16545 0.0562,0.2925 0.14068,0.38031 0.0839,0.0878 0.18915,0.13195 0.31478,0.13195 0.0936,0 0.1737,-0.0248 0.23963,-0.0743 0.0665,-0.0494 0.11888,-0.12853 0.15767,-0.23714 z m -0.8382,-0.4104 h 0.84111 c -0.0112,-0.12705 -0.0436,-0.22214 -0.0965,-0.28567 -0.081,-0.0985 -0.18674,-0.14798 -0.31628,-0.14798 -0.11737,0 -0.21585,0.0393 -0.29586,0.1179 -0.0796,0.0786 -0.12369,0.18383 -0.13245,0.31575 z m 2.41319,0.34634 0.25027,0.035 c -0.0276,0.17222 -0.0975,0.30652 -0.21053,0.40402 -0.11301,0.0975 -0.2522,0.14605 -0.41662,0.14605 -0.20616,0 -0.37208,-0.0674 -0.49717,-0.2023 -0.12563,-0.13483 -0.18826,-0.3279 -0.18826,-0.57914 0,-0.16296 0.0272,-0.3051 0.081,-0.42733 0.0538,-0.12174 0.13581,-0.21347 0.24643,-0.27406 0.1101,-0.0611 0.22987,-0.0917 0.35994,-0.0917 0.16341,0 0.29782,0.0412 0.40161,0.1242 0.10425,0.0829 0.17124,0.20084 0.20034,0.35311 l -0.24743,0.0379 c -0.0238,-0.10139 -0.0655,-0.17751 -0.12608,-0.22897 -0.0601,-0.0509 -0.1329,-0.0767 -0.21833,-0.0767 -0.12899,0 -0.23376,0.0461 -0.31478,0.1383 -0.0805,0.0926 -0.12073,0.23812 -0.12073,0.43799 0,0.20272 0.0388,0.34973 0.11639,0.44138 0.0781,0.0916 0.17947,0.13779 0.30412,0.13779 0.10088,0 0.18481,-0.0306 0.25177,-0.0922 0.0675,-0.0611 0.11012,-0.15571 0.12804,-0.28329 z m 0.4686,0.55298 v -2.0838 h 0.25612 v 0.74985 c 0.11887,-0.1392 0.26873,-0.20857 0.45016,-0.20857 0.11107,0 0.20759,0.0218 0.29001,0.066 0.082,0.0441 0.1407,0.10477 0.1761,0.1824 0.0354,0.0776 0.0529,0.19058 0.0529,0.33811 v 0.95602 h -0.25614 v -0.95512 c 0,-0.1275 -0.0276,-0.22066 -0.0824,-0.27884 -0.0554,-0.0582 -0.1329,-0.0873 -0.23383,-0.0873 -0.0752,0 -0.14598,0.0194 -0.21241,0.0587 -0.0665,0.0393 -0.11356,0.0926 -0.14214,0.16005 -0.0281,0.067 -0.0422,0.1596 -0.0422,0.27794 v 0.82463 z m 2.60527,-0.18915 c -0.0951,0.081 -0.18674,0.13772 -0.27458,0.17124 -0.0877,0.0334 -0.18188,0.0499 -0.28274,0.0499 -0.16589,0 -0.29347,-0.0403 -0.38272,-0.12128 -0.0893,-0.0806 -0.13388,-0.18383 -0.13388,-0.30946 0,-0.0737 0.0169,-0.14115 0.0505,-0.20227 0.0339,-0.0611 0.0781,-0.10965 0.1324,-0.14648 0.0548,-0.0369 0.11594,-0.065 0.18433,-0.0839 0.0504,-0.0131 0.12661,-0.0257 0.22802,-0.0383 0.20661,-0.0243 0.35939,-0.0539 0.45688,-0.0879 0.001,-0.0349 0.001,-0.0572 0.001,-0.0664 0,-0.1038 -0.0242,-0.17709 -0.0728,-0.21977 -0.0655,-0.0577 -0.16296,-0.0863 -0.29197,-0.0863 -0.12081,0 -0.21008,0.0214 -0.26731,0.0635 -0.0576,0.0422 -0.0999,0.11694 -0.12756,0.22463 l -0.25026,-0.035 c 0.0228,-0.10716 0.0601,-0.19402 0.11255,-0.25996 0.0524,-0.066 0.12803,-0.11647 0.22696,-0.15232 0.0985,-0.0354 0.21344,-0.0534 0.34343,-0.0534 0.12906,0 0.23429,0.0151 0.3153,0.0456 0.0805,0.0306 0.14018,0.0684 0.17804,0.11454 0.0378,0.046 0.0645,0.10424 0.08,0.1746 0.008,0.0437 0.0126,0.12223 0.0126,0.23526 v 0.33954 c 0,0.23723 0.005,0.38706 0.016,0.45059 0.0102,0.0635 0.0316,0.12419 0.0626,0.1824 h -0.26776 c -0.0257,-0.0538 -0.0422,-0.11692 -0.0495,-0.18915 z m -0.0204,-0.56753 c -0.0931,0.0378 -0.2328,0.0698 -0.4191,0.096 -0.10567,0.0151 -0.18036,0.032 -0.2241,0.0509 -0.0437,0.019 -0.0771,0.0466 -0.10086,0.0825 -0.0238,0.0363 -0.0359,0.0767 -0.0359,0.12125 0,0.0674 0.0256,0.12415 0.0776,0.16929 0.0519,0.0451 0.12756,0.0679 0.22701,0.0679 0.0985,0 0.1863,-0.0213 0.2634,-0.0645 0.0766,-0.0427 0.13342,-0.10141 0.16928,-0.17558 0.0277,-0.0577 0.0412,-0.14266 0.0412,-0.25471 z"
       style="fill:#1b1918;fill-rule:evenodd;stroke-width:0.26458332"
       id="path16"
       inkscape:connector-curvature="0" />
    <path
       d="m 184.19992,102.19043 c -0.0951,0.081 -0.18674,0.13772 -0.27456,0.17124 -0.0878,0.0335 -0.18187,0.05 -0.28276,0.05 -0.16589,0 -0.29347,-0.0403 -0.38272,-0.12129 -0.0892,-0.0805 -0.13387,-0.18383 -0.13387,-0.30946 0,-0.0737 0.017,-0.14112 0.0505,-0.20227 0.0339,-0.0611 0.0781,-0.10964 0.13237,-0.14647 0.0548,-0.0369 0.11594,-0.065 0.18436,-0.0839 0.0504,-0.0131 0.12658,-0.0257 0.22799,-0.0383 0.20662,-0.0243 0.35939,-0.0538 0.45691,-0.0878 10e-4,-0.0349 10e-4,-0.0572 10e-4,-0.0665 0,-0.1038 -0.0242,-0.17709 -0.0727,-0.21976 -0.0655,-0.0577 -0.16298,-0.0863 -0.29197,-0.0863 -0.12083,0 -0.21008,0.0214 -0.26731,0.0635 -0.0577,0.0422 -0.0999,0.11692 -0.12758,0.22463 l -0.25027,-0.0349 c 0.0228,-0.10719 0.0601,-0.19405 0.11258,-0.25996 0.0523,-0.066 0.12801,-0.11649 0.22694,-0.15232 0.0985,-0.0354 0.21346,-0.0534 0.34342,-0.0534 0.12909,0 0.23432,0.0151 0.31531,0.0456 0.0805,0.0306 0.14017,0.0684 0.17804,0.11451 0.0378,0.0461 0.0645,0.10425 0.08,0.1746 0.008,0.0436 0.0126,0.12226 0.0126,0.23529 v 0.33952 c 0,0.23722 0.005,0.38708 0.016,0.45061 0.0102,0.0635 0.0316,0.12419 0.0626,0.18237 h -0.26776 c -0.0257,-0.0538 -0.0422,-0.11691 -0.0495,-0.18915 z m -0.0204,-0.5675 c -0.0931,0.0378 -0.23278,0.0698 -0.4191,0.096 -0.10567,0.0151 -0.18036,0.032 -0.2241,0.0509 -0.0436,0.019 -0.0771,0.0466 -0.10086,0.0825 -0.0238,0.0364 -0.0359,0.0767 -0.0359,0.12126 0,0.0674 0.0256,0.12414 0.0776,0.16928 0.0519,0.0451 0.12758,0.0679 0.22701,0.0679 0.0985,0 0.18632,-0.0213 0.26342,-0.0645 0.0767,-0.0427 0.13343,-0.10141 0.16926,-0.17557 0.0277,-0.0578 0.0413,-0.14267 0.0413,-0.25472 z m 0.88816,0.75665 h -0.23866 v -2.08377 h 0.25615 v 0.74353 c 0.10813,-0.13483 0.24593,-0.20228 0.41375,-0.20228 0.0926,0 0.18092,0.0185 0.26387,0.0558 0.083,0.0374 0.15089,0.0902 0.20473,0.15767 0.0533,0.0679 0.0956,0.14938 0.12563,0.24495 0.0305,0.0951 0.0456,0.19738 0.0456,0.30607 0,0.25808 -0.064,0.45786 -0.19163,0.59857 -0.12809,0.14115 -0.28131,0.21151 -0.46035,0.21151 -0.17796,0 -0.31769,-0.0743 -0.4191,-0.22215 z m -0.003,-0.76641 c 0,0.18044 0.0246,0.31096 0.0737,0.3915 0.0805,0.13139 0.18915,0.19741 0.32639,0.19741 0.11205,0 0.2086,-0.0485 0.28958,-0.1455 0.0815,-0.097 0.12224,-0.24159 0.12224,-0.43365 0,-0.19696 -0.0388,-0.342 -0.11692,-0.43561 -0.0781,-0.0936 -0.17264,-0.14071 -0.28326,-0.14071 -0.11205,0 -0.20857,0.0485 -0.28959,0.14558 -0.0814,0.097 -0.12215,0.23714 -0.12215,0.42098 z m 2.37238,0.57726 c -0.0951,0.081 -0.18674,0.13772 -0.27458,0.17124 -0.0877,0.0335 -0.18188,0.05 -0.28274,0.05 -0.16589,0 -0.29347,-0.0403 -0.38272,-0.12129 -0.0893,-0.0805 -0.13388,-0.18383 -0.13388,-0.30946 0,-0.0737 0.0169,-0.14112 0.0505,-0.20227 0.0339,-0.0611 0.0781,-0.10964 0.1324,-0.14647 0.0548,-0.0369 0.11594,-0.065 0.18433,-0.0839 0.0504,-0.0131 0.12661,-0.0257 0.22802,-0.0383 0.20661,-0.0243 0.35938,-0.0538 0.45688,-0.0878 0.001,-0.0349 0.001,-0.0572 0.001,-0.0665 0,-0.1038 -0.0242,-0.17709 -0.0728,-0.21976 -0.0655,-0.0577 -0.16296,-0.0863 -0.29197,-0.0863 -0.12081,0 -0.21008,0.0214 -0.26731,0.0635 -0.0577,0.0422 -0.0999,0.11692 -0.12756,0.22463 l -0.25026,-0.0349 c 0.0228,-0.10719 0.0601,-0.19405 0.11255,-0.25996 0.0524,-0.066 0.12803,-0.11649 0.22696,-0.15232 0.0985,-0.0354 0.21344,-0.0534 0.34343,-0.0534 0.12906,0 0.23429,0.0151 0.3153,0.0456 0.0805,0.0306 0.14018,0.0684 0.17804,0.11451 0.0378,0.0461 0.0645,0.10425 0.08,0.1746 0.008,0.0436 0.0126,0.12226 0.0126,0.23529 v 0.33952 c 0,0.23722 0.005,0.38708 0.016,0.45061 0.0102,0.0635 0.0316,0.12419 0.0626,0.18237 h -0.26776 c -0.0257,-0.0538 -0.0422,-0.11691 -0.0495,-0.18915 z m -0.0204,-0.5675 c -0.0931,0.0378 -0.2328,0.0698 -0.4191,0.096 -0.10567,0.0151 -0.18036,0.032 -0.2241,0.0509 -0.0437,0.019 -0.0771,0.0466 -0.10086,0.0825 -0.0238,0.0364 -0.0359,0.0767 -0.0359,0.12126 0,0.0674 0.0256,0.12414 0.0776,0.16928 0.0519,0.0451 0.12756,0.0679 0.22701,0.0679 0.0985,0 0.1863,-0.0213 0.26339,-0.0645 0.0767,-0.0427 0.13343,-0.10141 0.16929,-0.17557 0.0277,-0.0578 0.0412,-0.14267 0.0412,-0.25472 z m 0.65101,-1.03029 v -0.29683 h 0.25612 v 0.29683 z m -0.32409,2.37099 0.0471,-0.21683 c 0.0514,0.0131 0.0916,0.0199 0.12128,0.0199 0.0524,0 0.0912,-0.0175 0.11684,-0.0519 0.0258,-0.0344 0.0389,-0.12126 0.0389,-0.25948 v -1.58618 h 0.25612 v 1.5915 c 0,0.18576 -0.0243,0.3153 -0.0728,0.38804 -0.0616,0.0946 -0.16396,0.14213 -0.30699,0.14213 -0.0694,0 -0.13581,-0.009 -0.2004,-0.0271 z m 0.87609,-1.33927 c 0,-0.27895 0.0776,-0.48557 0.23326,-0.61989 0.12951,-0.11161 0.28813,-0.16741 0.47487,-0.16741 0.20717,0 0.3769,0.068 0.5089,0.20379 0.13139,0.1353 0.19738,0.32303 0.19738,0.56221 0,0.19402 -0.0291,0.34626 -0.0873,0.45733 -0.0582,0.11107 -0.14311,0.19749 -0.25471,0.25905 -0.11107,0.0616 -0.23278,0.0922 -0.36428,0.0922 -0.21148,0 -0.38219,-0.0675 -0.51268,-0.20281 -0.13049,-0.13531 -0.19545,-0.3303 -0.19545,-0.58446 z m 0.26188,5.3e-4 c 0,0.19306 0.0422,0.33758 0.12661,0.43312 0.0849,0.0961 0.19111,0.14409 0.31964,0.14409 0.12713,0 0.23289,-0.048 0.31771,-0.14454 0.0845,-0.0965 0.12661,-0.24352 0.12661,-0.4409 0,-0.18632 -0.0427,-0.32745 -0.12759,-0.42302 -0.0848,-0.0961 -0.19058,-0.14406 -0.31673,-0.14406 -0.12853,0 -0.23474,0.0475 -0.31964,0.14308 -0.0844,0.0956 -0.12661,0.23964 -0.12661,0.43223 z"
       style="fill:#1b1918;fill-rule:evenodd;stroke-width:0.26458332"
       id="path18"
       inkscape:connector-curvature="0" />
    <path
       d="m 184.19992,33.153394 c -0.0951,0.08102 -0.18674,0.137715 -0.27456,0.171238 -0.0878,0.03344 -0.18187,0.04993 -0.28276,0.04993 -0.16589,0 -0.29347,-0.04027 -0.38272,-0.121259 -0.0892,-0.08057 -0.13387,-0.183832 -0.13387,-0.309456 0,-0.07371 0.017,-0.141156 0.0505,-0.202274 0.0339,-0.06112 0.0781,-0.109644 0.13237,-0.146474 0.0548,-0.03691 0.11594,-0.06503 0.18436,-0.08393 0.0504,-0.01312 0.12658,-0.02572 0.22791,-0.03831 0.20662,-0.02424 0.35947,-0.05387 0.45699,-0.08784 10e-4,-0.03487 10e-4,-0.05723 10e-4,-0.06644 0,-0.103796 -0.0242,-0.177006 -0.0727,-0.219683 -0.0655,-0.05776 -0.16298,-0.08633 -0.29197,-0.08633 -0.12083,0 -0.21008,0.0213 -0.26731,0.06353 -0.0577,0.04215 -0.0999,0.116866 -0.12758,0.224551 l -0.25027,-0.03487 c 0.0228,-0.107235 0.0601,-0.194019 0.1125,-0.260032 0.0524,-0.06599 0.12809,-0.11639 0.22702,-0.152321 0.0985,-0.0354 0.21346,-0.05331 0.34342,-0.05331 0.12902,0 0.23432,0.015 0.31531,0.04559 0.0805,0.03053 0.14017,0.06839 0.17798,0.114459 0.0379,0.04604 0.0645,0.104325 0.08,0.174599 0.008,0.04366 0.0127,0.122237 0.0127,0.235267 v 0.33954 c 0,0.237225 0.005,0.387059 0.016,0.450585 0.0102,0.06361 0.0315,0.124196 0.0626,0.182404 h -0.26776 c -0.0256,-0.05384 -0.0421,-0.116919 -0.0494,-0.18915 z m -0.0204,-0.567532 c -0.0931,0.03781 -0.23278,0.06982 -0.4191,0.09602 -0.10572,0.01505 -0.18044,0.03201 -0.2241,0.05098 -0.0436,0.01892 -0.0771,0.04651 -0.10086,0.08244 -0.0238,0.03635 -0.0359,0.07665 -0.0359,0.121258 0,0.06744 0.0256,0.124117 0.0776,0.169281 0.0519,0.04509 0.12758,0.06787 0.22701,0.06787 0.0985,0 0.18624,-0.0213 0.26342,-0.06448 0.0767,-0.04268 0.13335,-0.101336 0.16926,-0.175578 0.0277,-0.05776 0.0413,-0.142584 0.0413,-0.254635 z m 0.64945,0.756682 v -1.510427 h 0.22995 v 0.231378 c 0.0586,-0.107235 0.113,-0.178038 0.16296,-0.21201 0.0499,-0.03445 0.10477,-0.05138 0.16441,-0.05138 0.0863,0 0.17415,0.02715 0.26339,0.08099 l -0.0912,0.236246 c -0.0621,-0.03495 -0.1242,-0.05241 -0.18622,-0.05241 -0.0558,0 -0.10575,0.01696 -0.14993,0.05048 -0.0441,0.03344 -0.0757,0.08001 -0.0946,0.139647 -0.0286,0.09075 -0.0427,0.190129 -0.0427,0.298344 v 0.789146 z m 0.96914,0 v -1.510427 h 0.22995 v 0.231378 c 0.0587,-0.107235 0.11303,-0.178038 0.16298,-0.21201 0.0499,-0.03445 0.10478,-0.05138 0.16439,-0.05138 0.0863,0 0.17415,0.02715 0.26339,0.08099 l -0.0912,0.236246 c -0.0621,-0.03495 -0.12419,-0.05241 -0.18621,-0.05241 -0.0558,0 -0.10576,0.01696 -0.14992,0.05048 -0.0441,0.03344 -0.0757,0.08001 -0.0946,0.139647 -0.0286,0.09075 -0.0427,0.190129 -0.0427,0.298344 v 0.789146 z m 0.97208,-1.792711 v -0.291094 h 0.25612 v 0.291094 z m 0,1.792711 v -1.510427 h 0.25612 v 1.510427 z m 0.88228,0 h -0.23863 v -2.083805 h 0.25612 v 0.743638 c 0.10816,-0.134858 0.24593,-0.202274 0.41378,-0.202274 0.0926,0 0.1809,0.01844 0.26384,0.0558 0.083,0.03733 0.15082,0.09022 0.20469,0.157639 0.0533,0.06789 0.0955,0.149331 0.12562,0.244951 0.0306,0.09504 0.0456,0.197406 0.0456,0.305991 0,0.258075 -0.0641,0.457967 -0.19161,0.598593 -0.12804,0.141155 -0.28134,0.211482 -0.4603,0.211482 -0.17804,0 -0.31768,-0.07424 -0.4191,-0.222144 z m -0.003,-0.766339 c 0,0.180366 0.0247,0.310859 0.0737,0.391425 0.0806,0.131392 0.18923,0.197379 0.3265,0.197379 0.11205,0 0.20857,-0.04852 0.28956,-0.145495 0.0815,-0.09705 0.12226,-0.241564 0.12226,-0.433652 0,-0.196929 -0.0389,-0.342 -0.11694,-0.435583 -0.0781,-0.09361 -0.17264,-0.140626 -0.28327,-0.140626 -0.11205,0 -0.20857,0.04852 -0.28958,0.145494 -0.0814,0.09697 -0.12224,0.237146 -0.12224,0.421058 z m 2.37239,0.577189 c -0.0951,0.08102 -0.18675,0.137715 -0.27456,0.171238 -0.0878,0.03344 -0.18188,0.04993 -0.28276,0.04993 -0.1659,0 -0.29348,-0.04027 -0.38272,-0.121259 -0.0892,-0.08057 -0.13388,-0.183832 -0.13388,-0.309456 0,-0.07371 0.017,-0.141156 0.0505,-0.202274 0.0339,-0.06112 0.0781,-0.109644 0.13237,-0.146474 0.0548,-0.03691 0.11594,-0.06503 0.18436,-0.08393 0.0504,-0.01312 0.12658,-0.02572 0.22792,-0.03831 0.20664,-0.02424 0.35949,-0.05387 0.45698,-0.08784 0.001,-0.03487 0.001,-0.05723 0.001,-0.06644 0,-0.103796 -0.0242,-0.177006 -0.0727,-0.219683 -0.0655,-0.05776 -0.16298,-0.08633 -0.29196,-0.08633 -0.12084,0 -0.21008,0.0213 -0.26731,0.06353 -0.0578,0.04215 -0.0999,0.116866 -0.12758,0.224551 l -0.25027,-0.03487 c 0.0228,-0.107235 0.0601,-0.194019 0.1125,-0.260032 0.0524,-0.06599 0.12808,-0.11639 0.22701,-0.152321 0.0985,-0.0354 0.21347,-0.05331 0.34343,-0.05331 0.12901,0 0.23431,0.015 0.3153,0.04559 0.0805,0.03053 0.14018,0.06839 0.17799,0.114459 0.0379,0.04604 0.0645,0.104325 0.08,0.174599 0.008,0.04366 0.0127,0.122237 0.0127,0.235267 v 0.33954 c 0,0.237225 0.005,0.387059 0.016,0.450585 0.0102,0.06361 0.0315,0.124196 0.0625,0.182404 h -0.26776 c -0.0256,-0.05384 -0.0421,-0.116919 -0.0494,-0.18915 z m -0.0204,-0.567532 c -0.0931,0.03781 -0.23278,0.06982 -0.4191,0.09602 -0.10573,0.01505 -0.18045,0.03201 -0.22408,0.05098 -0.0437,0.01892 -0.0771,0.04651 -0.10088,0.08244 -0.0238,0.03635 -0.0359,0.07665 -0.0359,0.121258 0,0.06744 0.0256,0.124117 0.0776,0.169281 0.0519,0.04509 0.12759,0.06787 0.22702,0.06787 0.0985,0 0.18624,-0.0213 0.26342,-0.06448 0.0766,-0.04268 0.13335,-0.101336 0.16928,-0.175578 0.0277,-0.05776 0.0412,-0.142584 0.0412,-0.254635 z"
       style="fill:#1b1918;fill-rule:evenodd;stroke-width:0.26458332"
       id="path20"
       inkscape:connector-curvature="0" />
    <path
       d="m 183.58794,-25.294175 c -0.0951,0.08099 -0.18677,0.137689 -0.27458,0.171212 -0.0877,0.03347 -0.18188,0.04995 -0.28276,0.04995 -0.1659,0 -0.29348,-0.04027 -0.38272,-0.121259 -0.0892,-0.08057 -0.13388,-0.183832 -0.13388,-0.309456 0,-0.07374 0.017,-0.141156 0.0505,-0.202274 0.0339,-0.06112 0.0781,-0.109644 0.13237,-0.146474 0.0548,-0.03691 0.11597,-0.06503 0.18436,-0.08393 0.0504,-0.01312 0.12661,-0.02572 0.22791,-0.03834 0.20664,-0.02421 0.35949,-0.05384 0.45699,-0.08781 0.001,-0.03487 0.001,-0.05723 0.001,-0.06646 0,-0.103796 -0.0242,-0.17698 -0.0728,-0.219657 -0.0655,-0.05776 -0.16299,-0.08633 -0.29197,-0.08633 -0.12084,0 -0.21008,0.0213 -0.26731,0.06353 -0.0578,0.04215 -0.0999,0.11684 -0.12758,0.224552 l -0.25027,-0.03487 c 0.0228,-0.107263 0.0602,-0.194019 0.1125,-0.260033 0.0524,-0.06599 0.12811,-0.11639 0.22704,-0.152321 0.0985,-0.0354 0.21344,-0.05331 0.3434,-0.05331 0.12901,0 0.23432,0.01497 0.3153,0.04559 0.0805,0.03053 0.14018,0.06839 0.17799,0.114458 0.0379,0.04604 0.0645,0.104326 0.08,0.174599 0.008,0.04366 0.0127,0.122237 0.0127,0.235267 v 0.339514 c 0,0.237225 0.005,0.387085 0.016,0.450612 0.0102,0.0636 0.0315,0.124195 0.0625,0.182403 h -0.26773 c -0.0257,-0.05384 -0.0421,-0.116919 -0.0494,-0.18915 z m -0.0204,-0.567532 c -0.0932,0.03781 -0.2328,0.06982 -0.4191,0.09599 -0.10575,0.01508 -0.18044,0.03204 -0.2241,0.05101 -0.0437,0.01889 -0.0771,0.04651 -0.10089,0.08242 -0.0238,0.03638 -0.0359,0.07665 -0.0359,0.121285 0,0.06742 0.0257,0.124116 0.0776,0.16928 0.0519,0.04506 0.12758,0.06787 0.22704,0.06787 0.0985,0 0.18622,-0.0213 0.26339,-0.06451 0.0767,-0.04268 0.13335,-0.101309 0.16928,-0.175577 0.0277,-0.05773 0.0413,-0.142558 0.0413,-0.254609 z m 1.20825,0.528241 0.0349,0.226034 c -0.0718,0.015 -0.13629,0.02281 -0.19254,0.02281 -0.0927,0 -0.16446,-0.01455 -0.21584,-0.04419 -0.0509,-0.02955 -0.0868,-0.06787 -0.10769,-0.11594 -0.0208,-0.048 -0.0311,-0.148881 -0.0311,-0.302631 v -0.870214 h -0.18915 v -0.197856 h 0.18915 v -0.373512 l 0.25614,-0.153749 v 0.527261 h 0.25612 v 0.197856 h -0.25612 v 0.884767 c 0,0.07321 0.004,0.120306 0.0136,0.141155 0.009,0.02085 0.0232,0.03736 0.0436,0.04995 0.0204,0.01214 0.0495,0.01844 0.0873,0.01844 0.0281,0 0.0655,-0.0034 0.1116,-0.01019 z m 0.24974,0.228441 v -1.510427 h 0.22995 v 0.231379 c 0.0587,-0.107263 0.11303,-0.178065 0.16298,-0.212038 0.0499,-0.03442 0.10478,-0.05136 0.16439,-0.05136 0.0863,0 0.17415,0.02715 0.26342,0.08099 l -0.0912,0.236246 c -0.0621,-0.03495 -0.12419,-0.05241 -0.18624,-0.05241 -0.0558,0 -0.10572,0.01693 -0.14991,0.05046 -0.0441,0.03347 -0.0757,0.08004 -0.0946,0.139674 -0.0286,0.09073 -0.0427,0.190103 -0.0427,0.298344 v 0.789146 z m 1.95871,-0.18915 c -0.0951,0.08099 -0.18674,0.137689 -0.27459,0.171212 -0.0877,0.03347 -0.18187,0.04995 -0.28273,0.04995 -0.16592,0 -0.29348,-0.04027 -0.38275,-0.121259 -0.0892,-0.08057 -0.13385,-0.183832 -0.13385,-0.309456 0,-0.07374 0.0169,-0.141156 0.0505,-0.202274 0.0339,-0.06112 0.0781,-0.109644 0.13237,-0.146474 0.0548,-0.03691 0.11597,-0.06503 0.18436,-0.08393 0.0504,-0.01312 0.1266,-0.02572 0.22791,-0.03834 0.20664,-0.02421 0.35949,-0.05384 0.45699,-0.08781 0.001,-0.03487 0.001,-0.05723 0.001,-0.06646 0,-0.103796 -0.0242,-0.17698 -0.0728,-0.219657 -0.0654,-0.05776 -0.16298,-0.08633 -0.29196,-0.08633 -0.12084,0 -0.21008,0.0213 -0.26731,0.06353 -0.0577,0.04215 -0.0999,0.11684 -0.12759,0.224552 l -0.25026,-0.03487 c 0.0228,-0.107263 0.0602,-0.194019 0.1125,-0.260033 0.0524,-0.06599 0.12811,-0.11639 0.22704,-0.152321 0.0985,-0.0354 0.21343,-0.05331 0.34342,-0.05331 0.12899,0 0.23429,0.01497 0.31528,0.04559 0.0805,0.03053 0.14018,0.06839 0.17799,0.114458 0.0379,0.04604 0.0645,0.104326 0.08,0.174599 0.008,0.04366 0.0127,0.122237 0.0127,0.235267 v 0.339514 c 0,0.237225 0.005,0.387085 0.016,0.450612 0.0102,0.0636 0.0315,0.124195 0.0626,0.182403 h -0.26776 c -0.0257,-0.05384 -0.0421,-0.116919 -0.0494,-0.18915 z m -0.0204,-0.567532 c -0.0932,0.03781 -0.23281,0.06982 -0.4191,0.09599 -0.10575,0.01508 -0.18045,0.03204 -0.2241,0.05101 -0.0437,0.01889 -0.0771,0.04651 -0.10089,0.08242 -0.0238,0.03638 -0.0359,0.07665 -0.0359,0.121285 0,0.06742 0.0257,0.124116 0.0776,0.16928 0.0519,0.04506 0.12758,0.06787 0.22704,0.06787 0.0985,0 0.18621,-0.0213 0.26339,-0.06451 0.0767,-0.04268 0.13335,-0.101309 0.16928,-0.175577 0.0277,-0.05773 0.0413,-0.142558 0.0413,-0.254609 z m 0.55049,0.305541 0.25321,-0.04072 c 0.014,0.101415 0.0538,0.179043 0.1188,0.233336 0.065,0.05384 0.15621,0.08099 0.27262,0.08099 0.1179,0 0.20519,-0.02376 0.26242,-0.07175 0.0568,-0.04757 0.0854,-0.103823 0.0854,-0.168302 0,-0.05776 -0.0257,-0.103372 -0.0767,-0.136366 -0.0359,-0.02281 -0.12314,-0.05138 -0.26188,-0.08676 -0.1873,-0.04712 -0.31674,-0.08784 -0.3895,-0.122264 -0.0723,-0.03495 -0.12713,-0.0825 -0.16446,-0.143536 -0.0374,-0.0607 -0.0563,-0.128111 -0.0563,-0.201851 0,-0.06742 0.0155,-0.129513 0.046,-0.186743 0.0311,-0.05723 0.0728,-0.104775 0.12562,-0.142557 0.0399,-0.0291 0.0941,-0.05387 0.16253,-0.07427 0.0688,-0.02032 0.14214,-0.03051 0.22072,-0.03051 0.11835,0 0.22217,0.01693 0.31141,0.05136 0.0897,0.03397 0.15571,0.08057 0.19836,0.138748 0.0422,0.05874 0.0718,0.136816 0.0878,0.234765 l -0.25027,0.03495 c -0.0112,-0.07861 -0.0441,-0.140176 -0.0985,-0.184361 -0.0543,-0.04411 -0.13095,-0.06591 -0.2304,-0.06591 -0.11687,0 -0.20077,0.01934 -0.25072,0.05818 -0.05,0.03879 -0.0752,0.08437 -0.0752,0.136287 0,0.03299 0.0102,0.06308 0.031,0.08977 0.0208,0.02715 0.0534,0.04995 0.098,0.06786 0.0256,0.0097 0.10036,0.03151 0.22553,0.06549 0.18045,0.048 0.30652,0.08781 0.3783,0.118348 0.0718,0.03059 0.12809,0.07567 0.16881,0.133879 0.0413,0.05871 0.0616,0.131471 0.0616,0.218758 0,0.0849 -0.0247,0.164941 -0.0747,0.240082 -0.0499,0.07522 -0.1217,0.13343 -0.21531,0.174599 -0.0941,0.04125 -0.20032,0.06165 -0.31867,0.06165 -0.19598,0 -0.34584,-0.04072 -0.44865,-0.121708 -0.10282,-0.08154 -0.16838,-0.201825 -0.19696,-0.361448 z"
       style="fill:#1b1918;fill-rule:evenodd;stroke-width:0.26458332"
       id="path22"
       inkscape:connector-curvature="0" />
    <path
       d="m 88.842768,166.636 h -2.250017 v 15 h 2.250017 v 22.68749 h 22.687492 v 2.25002 h 15 v -2.25002 h 22.68749 V 181.636 h 2.25001 v -15 h -2.25001 v -22.68752 h -22.68749 v -2.24999 h -15 v 2.24999 H 88.842768 Z"
       style="fill:none;stroke:#1b1918;stroke-width:0.14999229;stroke-linecap:butt;stroke-linejoin:miter;stroke-dasharray:none"
       id="path24"
       inkscape:connector-curvature="0" />
    <path
       d="m 223.72637,165.88366 h 2.24999 v 15.00002 h -2.24999 v 22.68749 h -22.68752 v 2.24999 h -14.99999 v -2.24999 h -22.6875 v -22.68749 h -2.25001 v -15.00002 h 2.25001 v -22.68749 h 22.6875 v -2.24999 h 14.99999 v 2.24999 h 22.68752 z"
       style="fill:none;stroke:#1b1918;stroke-width:0.14999229;stroke-linecap:butt;stroke-linejoin:miter;stroke-dasharray:none"
       id="path26"
       inkscape:connector-curvature="0" />
    <path
       d="m 242.84349,141.69849 h 15 v 2.24999 H 300.669 v -2.24999 h 15 v 2.24999 h 42.82561 v -2.24999 h 15 v 2.24999 h 42.82551 v -2.24999 h 15 v 2.24999 h 12.12106 V 166.636 h -2.24999 v 15 h 2.24999 v 22.68749 h -12.12106 v 2.25002 h -15 v -2.25002 h -42.82551 v 2.25002 h -15 v -2.25002 H 315.669 v 2.25002 h -15 v -2.25002 h -42.82551 v 2.25002 h -15 v -2.25002 H 231.94118 V 181.636 h 2.24999 v -15 h -2.24999 v -22.68752 h 10.90231 z m -3.4023,7.50001 h 196.49998 v 49.87499 H 239.44119 Z"
       style="fill:none;stroke:#1b1918;stroke-width:0.14999229;stroke-linecap:butt;stroke-linejoin:miter;stroke-dasharray:none"
       id="path28"
       inkscape:connector-curvature="0" />
    <path
       d="m 344.51879,65.382236 h 11.37616 v 20.249938 h 21.70372 v -20.249938 -2.24999 h 15.00002 v 2.24999 h 11.37605 v 20.249938 h 21.70375 v -20.249938 -2.24999 h 14.99999 v 2.24999 h 11.376 v 20.249938 h 21.70372 v -20.249938 -2.24999 h 15 v 2.24999 h 25.73932 v 25.124251 l 2.10106,-0.02085 0.1488,14.999253 -2.24986,0.0224 h -22.25743 v 20.24999 2.25002 h -15 v -2.25002 h -10.97386 v -20.02507 h -22.25738 v 20.02507 2.25002 h -15 v -2.25002 h -10.82241 v -20.02507 h -22.25739 v 20.02507 2.25002 h -14.99999 v -2.25002 h -10.82244 v -20.02507 h -22.25736 v 20.02507 2.25002 h -14.99999 v -2.25002 h -25.35174 v -25.12425 l -2.10106,0.0208 -0.1488,-14.999257 2.24986,-0.02233 h 22.02127 v -20.250018 -2.24999 h 14.99999 z"
       style="fill:none;stroke:#e30016;stroke-width:0.14999229;stroke-linecap:butt;stroke-linejoin:miter;stroke-dasharray:none"
       id="path30"
       inkscape:connector-curvature="0" />
    <g
       id="Layer1000"
       transform="matrix(0.26458333,0,0,0.26458333,79.25821,-73.038052)">
      <path
         d="m 16.5949,283.722 h 41.2055 v 8.5039 h 56.6929 v -8.5039 h 161.8603 v 8.5039 h 56.6929 V 283.722 H 494.907 v 8.5039 h 56.6929 v -8.5039 h 161.8603 v 8.5039 h 56.6929 v -8.5039 h 45.8118 v 94.2508 h -8.2204 v 56.6929 h 8.2204 v 85.7492 h -45.8118 v -8.504 h -56.6929 v 8.504 H 551.5999 v -8.504 H 494.907 v 8.504 H 333.0465 v -8.504 h -56.6929 v 8.504 H 114.4933 v -8.504 H 57.8004 v 8.504 H 16.5949 v -85.7492 h 8.5039 v -56.6929 h -8.5039 z"
         style="fill:none;stroke:#1b1918;stroke-width:0.56690001;stroke-linecap:butt;stroke-linejoin:miter;stroke-dasharray:none"
         id="path32"
         inkscape:connector-curvature="0" />
      <g
         id="Layer1001">
        <path
           d="m 99.1791,483.5645 v 8.5039 h 56.693 v -8.5039 z"
           style="fill:none;stroke:#1b1918;stroke-width:0.56690001;stroke-linecap:butt;stroke-linejoin:miter;stroke-dasharray:none"
           id="path34"
           inkscape:connector-curvature="0" />
        <path
           d="m 280.8984,483.5645 v 8.5039 h 56.6929 v -8.5039 z"
           style="fill:none;stroke:#1b1918;stroke-width:0.56690001;stroke-linecap:butt;stroke-linejoin:miter;stroke-dasharray:none"
           id="path36"
           inkscape:connector-curvature="0" />
        <path
           d="m 462.6173,483.5645 v 8.5039 h 56.6929 v -8.5039 z"
           style="fill:none;stroke:#1b1918;stroke-width:0.56690001;stroke-linecap:butt;stroke-linejoin:miter;stroke-dasharray:none"
           id="path38"
           inkscape:connector-curvature="0" />
        <path
           d="m 644.3359,483.5645 v 8.5039 h 56.6929 v -8.5039 z"
           style="fill:none;stroke:#1b1918;stroke-width:0.56690001;stroke-linecap:butt;stroke-linejoin:miter;stroke-dasharray:none"
           id="path40"
           inkscape:connector-curvature="0" />
      </g>
    </g>
    <g
       id="Layer1002"
       transform="matrix(0.26458333,0,0,0.26458333,79.25821,-73.038052)">
      <path
         d="m 15.9491,542.0673 h 41.2056 v 8.5039 h 56.6929 v -8.5039 h 161.8602 v 8.5039 h 56.693 v -8.5039 h 161.8605 v 8.5039 h 56.6929 v -8.5039 h 161.8603 v 8.5039 h 56.6929 v -8.5039 h 45.8118 v 94.2508 h -8.2205 v 56.693 h 8.2205 v 85.7491 h -45.8118 v -8.5039 h -56.6929 v 8.5039 H 550.9542 v -8.5039 h -56.6929 v 8.5039 H 332.4008 v -8.5039 h -56.693 v 8.5039 H 113.8476 v -8.5039 H 57.1547 v 8.5039 H 15.9491 v -85.7491 h 8.504 v -56.693 h -8.504 z"
         style="fill:none;stroke:#1b1918;stroke-width:0.56690001;stroke-linecap:butt;stroke-linejoin:miter;stroke-dasharray:none"
         id="path44"
         inkscape:connector-curvature="0" />
      <g
         id="Layer1003">
        <path
           d="m 99.1791,570.4138 v 8.5039 h 56.693 v -8.5039 z"
           style="fill:none;stroke:#1b1918;stroke-width:0.56690001;stroke-linecap:butt;stroke-linejoin:miter;stroke-dasharray:none"
           id="path46"
           inkscape:connector-curvature="0" />
        <path
           d="m 280.8984,570.4138 v 8.5039 h 56.6929 v -8.5039 z"
           style="fill:none;stroke:#1b1918;stroke-width:0.56690001;stroke-linecap:butt;stroke-linejoin:miter;stroke-dasharray:none"
           id="path48"
           inkscape:connector-curvature="0" />
        <path
           d="m 462.6173,570.4138 v 8.5039 h 56.6929 v -8.5039 z"
           style="fill:none;stroke:#1b1918;stroke-width:0.56690001;stroke-linecap:butt;stroke-linejoin:miter;stroke-dasharray:none"
           id="path50"
           inkscape:connector-curvature="0" />
        <path
           d="m 644.3359,570.4138 v 8.5039 h 56.6929 v -8.5039 z"
           style="fill:none;stroke:#1b1918;stroke-width:0.56690001;stroke-linecap:butt;stroke-linejoin:miter;stroke-dasharray:none"
           id="path52"
           inkscape:connector-curvature="0" />
      </g>
    </g>
    <path
       d="m 139.18419,163.46852 v 14.9784 h 2.24983 v -14.9784 z"
       style="fill:none;stroke:#1b1918;stroke-width:0.14999229;stroke-linecap:butt;stroke-linejoin:miter;stroke-dasharray:none"
       id="path56"
       inkscape:connector-curvature="0" />
    <path
       d="m 171.13509,163.46852 v 14.9784 h 2.24986 v -14.9784 z"
       style="fill:none;stroke:#1b1918;stroke-width:0.14999229;stroke-linecap:butt;stroke-linejoin:miter;stroke-dasharray:none"
       id="path58"
       inkscape:connector-curvature="0" />
  </g>
</svg>
